<mxfile host="app.diagrams.net" agent="Mozilla/5.0 (Windows NT 10.0; Win64; x64) AppleWebKit/537.36 (KHTML, like Gecko) Chrome/126.0.0.0 Safari/537.36 OPR/112.0.0.0" version="24.7.12">
  <diagram id="C5RBs43oDa-KdzZeNtuy" name="Page-1">
    <mxGraphModel dx="1475" dy="517" grid="1" gridSize="10" guides="1" tooltips="1" connect="1" arrows="1" fold="1" page="1" pageScale="1" pageWidth="827" pageHeight="1169" math="0" shadow="0">
      <root>
        <mxCell id="WIyWlLk6GJQsqaUBKTNV-0" />
        <mxCell id="WIyWlLk6GJQsqaUBKTNV-1" parent="WIyWlLk6GJQsqaUBKTNV-0" />
        <mxCell id="uFmt03chWxdijatXJD9G-8" style="edgeStyle=orthogonalEdgeStyle;rounded=0;orthogonalLoop=1;jettySize=auto;html=1;entryX=0.5;entryY=0;entryDx=0;entryDy=0;curved=1;exitX=0.5;exitY=1;exitDx=0;exitDy=0;" edge="1" parent="WIyWlLk6GJQsqaUBKTNV-1" source="uFmt03chWxdijatXJD9G-1" target="uFmt03chWxdijatXJD9G-4">
          <mxGeometry relative="1" as="geometry" />
        </mxCell>
        <mxCell id="uFmt03chWxdijatXJD9G-25" value="&lt;font style=&quot;font-size: 14px;&quot;&gt;Admin&lt;/font&gt;" style="edgeLabel;html=1;align=center;verticalAlign=middle;resizable=0;points=[];" vertex="1" connectable="0" parent="uFmt03chWxdijatXJD9G-8">
          <mxGeometry x="0.8348" y="16" relative="1" as="geometry">
            <mxPoint as="offset" />
          </mxGeometry>
        </mxCell>
        <mxCell id="uFmt03chWxdijatXJD9G-44" style="edgeStyle=orthogonalEdgeStyle;rounded=0;orthogonalLoop=1;jettySize=auto;html=1;entryX=0.5;entryY=0;entryDx=0;entryDy=0;curved=1;" edge="1" parent="WIyWlLk6GJQsqaUBKTNV-1" source="uFmt03chWxdijatXJD9G-1" target="uFmt03chWxdijatXJD9G-39">
          <mxGeometry relative="1" as="geometry" />
        </mxCell>
        <mxCell id="uFmt03chWxdijatXJD9G-1" value="&lt;font style=&quot;font-size: 24px;&quot;&gt;M.O.C&lt;/font&gt;" style="rounded=1;whiteSpace=wrap;html=1;" vertex="1" parent="WIyWlLk6GJQsqaUBKTNV-1">
          <mxGeometry x="280" y="60" width="200" height="50" as="geometry" />
        </mxCell>
        <mxCell id="uFmt03chWxdijatXJD9G-9" style="edgeStyle=orthogonalEdgeStyle;rounded=0;orthogonalLoop=1;jettySize=auto;html=1;curved=1;entryX=0.5;entryY=0;entryDx=0;entryDy=0;" edge="1" parent="WIyWlLk6GJQsqaUBKTNV-1" source="uFmt03chWxdijatXJD9G-4" target="uFmt03chWxdijatXJD9G-12">
          <mxGeometry relative="1" as="geometry">
            <mxPoint x="-195" y="340" as="targetPoint" />
          </mxGeometry>
        </mxCell>
        <mxCell id="uFmt03chWxdijatXJD9G-24" value="" style="edgeStyle=orthogonalEdgeStyle;rounded=0;orthogonalLoop=1;jettySize=auto;html=1;curved=1;" edge="1" parent="WIyWlLk6GJQsqaUBKTNV-1" source="uFmt03chWxdijatXJD9G-4" target="uFmt03chWxdijatXJD9G-23">
          <mxGeometry relative="1" as="geometry" />
        </mxCell>
        <mxCell id="uFmt03chWxdijatXJD9G-33" value="" style="edgeStyle=orthogonalEdgeStyle;rounded=0;orthogonalLoop=1;jettySize=auto;html=1;curved=1;" edge="1" parent="WIyWlLk6GJQsqaUBKTNV-1" source="uFmt03chWxdijatXJD9G-4" target="uFmt03chWxdijatXJD9G-32">
          <mxGeometry relative="1" as="geometry" />
        </mxCell>
        <mxCell id="uFmt03chWxdijatXJD9G-4" value="Panel Administrativo" style="whiteSpace=wrap;html=1;" vertex="1" parent="WIyWlLk6GJQsqaUBKTNV-1">
          <mxGeometry x="-95" y="230" width="140" height="30" as="geometry" />
        </mxCell>
        <mxCell id="uFmt03chWxdijatXJD9G-16" value="" style="edgeStyle=orthogonalEdgeStyle;rounded=0;orthogonalLoop=1;jettySize=auto;html=1;curved=1;" edge="1" parent="WIyWlLk6GJQsqaUBKTNV-1" source="uFmt03chWxdijatXJD9G-12" target="uFmt03chWxdijatXJD9G-15">
          <mxGeometry relative="1" as="geometry" />
        </mxCell>
        <mxCell id="uFmt03chWxdijatXJD9G-18" value="" style="edgeStyle=orthogonalEdgeStyle;rounded=0;orthogonalLoop=1;jettySize=auto;html=1;curved=1;" edge="1" parent="WIyWlLk6GJQsqaUBKTNV-1" source="uFmt03chWxdijatXJD9G-12" target="uFmt03chWxdijatXJD9G-17">
          <mxGeometry relative="1" as="geometry" />
        </mxCell>
        <mxCell id="uFmt03chWxdijatXJD9G-20" value="" style="edgeStyle=orthogonalEdgeStyle;rounded=0;orthogonalLoop=1;jettySize=auto;html=1;curved=1;" edge="1" parent="WIyWlLk6GJQsqaUBKTNV-1" source="uFmt03chWxdijatXJD9G-12" target="uFmt03chWxdijatXJD9G-13">
          <mxGeometry relative="1" as="geometry" />
        </mxCell>
        <mxCell id="uFmt03chWxdijatXJD9G-21" style="edgeStyle=orthogonalEdgeStyle;rounded=0;orthogonalLoop=1;jettySize=auto;html=1;curved=1;entryX=0.5;entryY=0;entryDx=0;entryDy=0;" edge="1" parent="WIyWlLk6GJQsqaUBKTNV-1" source="uFmt03chWxdijatXJD9G-12" target="uFmt03chWxdijatXJD9G-22">
          <mxGeometry relative="1" as="geometry">
            <mxPoint x="-170" y="495" as="targetPoint" />
          </mxGeometry>
        </mxCell>
        <mxCell id="uFmt03chWxdijatXJD9G-12" value="&lt;font style=&quot;font-size: 18px;&quot;&gt;Menú&lt;/font&gt;" style="whiteSpace=wrap;html=1;" vertex="1" parent="WIyWlLk6GJQsqaUBKTNV-1">
          <mxGeometry x="-510" y="335" width="70" height="30" as="geometry" />
        </mxCell>
        <mxCell id="uFmt03chWxdijatXJD9G-13" value="Base de datos con el menú" style="whiteSpace=wrap;html=1;" vertex="1" parent="WIyWlLk6GJQsqaUBKTNV-1">
          <mxGeometry x="-720" y="485" width="150" height="40" as="geometry" />
        </mxCell>
        <mxCell id="uFmt03chWxdijatXJD9G-15" value="Cargar nuevo menú" style="whiteSpace=wrap;html=1;" vertex="1" parent="WIyWlLk6GJQsqaUBKTNV-1">
          <mxGeometry x="-535" y="490" width="120" height="30" as="geometry" />
        </mxCell>
        <mxCell id="uFmt03chWxdijatXJD9G-17" value="Modificar menú" style="whiteSpace=wrap;html=1;" vertex="1" parent="WIyWlLk6GJQsqaUBKTNV-1">
          <mxGeometry x="-370" y="490" width="90" height="30" as="geometry" />
        </mxCell>
        <mxCell id="uFmt03chWxdijatXJD9G-22" value="Eliminar menú" style="whiteSpace=wrap;html=1;" vertex="1" parent="WIyWlLk6GJQsqaUBKTNV-1">
          <mxGeometry x="-220" y="490" width="90" height="30" as="geometry" />
        </mxCell>
        <mxCell id="uFmt03chWxdijatXJD9G-27" value="" style="edgeStyle=orthogonalEdgeStyle;rounded=0;orthogonalLoop=1;jettySize=auto;html=1;curved=1;exitX=0;exitY=0.5;exitDx=0;exitDy=0;" edge="1" parent="WIyWlLk6GJQsqaUBKTNV-1" source="uFmt03chWxdijatXJD9G-23" target="uFmt03chWxdijatXJD9G-26">
          <mxGeometry relative="1" as="geometry">
            <Array as="points">
              <mxPoint x="-90" y="348" />
              <mxPoint x="-90" y="445" />
              <mxPoint x="-20" y="445" />
            </Array>
          </mxGeometry>
        </mxCell>
        <mxCell id="uFmt03chWxdijatXJD9G-29" value="" style="edgeStyle=orthogonalEdgeStyle;rounded=0;orthogonalLoop=1;jettySize=auto;html=1;curved=1;" edge="1" parent="WIyWlLk6GJQsqaUBKTNV-1" source="uFmt03chWxdijatXJD9G-23" target="uFmt03chWxdijatXJD9G-28">
          <mxGeometry relative="1" as="geometry" />
        </mxCell>
        <mxCell id="uFmt03chWxdijatXJD9G-31" value="" style="edgeStyle=orthogonalEdgeStyle;rounded=0;orthogonalLoop=1;jettySize=auto;html=1;curved=1;exitX=1;exitY=0.5;exitDx=0;exitDy=0;" edge="1" parent="WIyWlLk6GJQsqaUBKTNV-1" source="uFmt03chWxdijatXJD9G-23" target="uFmt03chWxdijatXJD9G-30">
          <mxGeometry relative="1" as="geometry" />
        </mxCell>
        <mxCell id="uFmt03chWxdijatXJD9G-23" value="Empleados" style="whiteSpace=wrap;html=1;" vertex="1" parent="WIyWlLk6GJQsqaUBKTNV-1">
          <mxGeometry x="-5" y="330" width="90" height="35" as="geometry" />
        </mxCell>
        <mxCell id="uFmt03chWxdijatXJD9G-26" value="Carga nuevo mozo" style="whiteSpace=wrap;html=1;" vertex="1" parent="WIyWlLk6GJQsqaUBKTNV-1">
          <mxGeometry x="-80" y="488.75" width="110" height="32.5" as="geometry" />
        </mxCell>
        <mxCell id="uFmt03chWxdijatXJD9G-28" value="Modificar mozo" style="whiteSpace=wrap;html=1;" vertex="1" parent="WIyWlLk6GJQsqaUBKTNV-1">
          <mxGeometry x="74" y="488.75" width="106" height="31.25" as="geometry" />
        </mxCell>
        <mxCell id="uFmt03chWxdijatXJD9G-30" value="Eliminar mozo" style="whiteSpace=wrap;html=1;" vertex="1" parent="WIyWlLk6GJQsqaUBKTNV-1">
          <mxGeometry x="220" y="490.62" width="96" height="30.63" as="geometry" />
        </mxCell>
        <mxCell id="uFmt03chWxdijatXJD9G-35" value="" style="edgeStyle=orthogonalEdgeStyle;rounded=0;orthogonalLoop=1;jettySize=auto;html=1;curved=1;exitX=0;exitY=0.5;exitDx=0;exitDy=0;" edge="1" parent="WIyWlLk6GJQsqaUBKTNV-1" source="uFmt03chWxdijatXJD9G-32" target="uFmt03chWxdijatXJD9G-34">
          <mxGeometry relative="1" as="geometry">
            <Array as="points">
              <mxPoint x="300" y="350" />
              <mxPoint x="300" y="435" />
              <mxPoint x="420" y="435" />
            </Array>
          </mxGeometry>
        </mxCell>
        <mxCell id="uFmt03chWxdijatXJD9G-37" value="" style="edgeStyle=orthogonalEdgeStyle;rounded=0;orthogonalLoop=1;jettySize=auto;html=1;curved=1;" edge="1" parent="WIyWlLk6GJQsqaUBKTNV-1" source="uFmt03chWxdijatXJD9G-32" target="uFmt03chWxdijatXJD9G-36">
          <mxGeometry relative="1" as="geometry" />
        </mxCell>
        <mxCell id="uFmt03chWxdijatXJD9G-32" value="Registro de mesas" style="whiteSpace=wrap;html=1;" vertex="1" parent="WIyWlLk6GJQsqaUBKTNV-1">
          <mxGeometry x="380" y="331.25" width="107" height="37.5" as="geometry" />
        </mxCell>
        <mxCell id="uFmt03chWxdijatXJD9G-34" value="Estado de las mesas" style="whiteSpace=wrap;html=1;" vertex="1" parent="WIyWlLk6GJQsqaUBKTNV-1">
          <mxGeometry x="350" y="491.25" width="116.5" height="27.5" as="geometry" />
        </mxCell>
        <mxCell id="uFmt03chWxdijatXJD9G-36" value="Mostrar pedido de cada mesa" style="whiteSpace=wrap;html=1;" vertex="1" parent="WIyWlLk6GJQsqaUBKTNV-1">
          <mxGeometry x="500" y="494.38" width="170" height="20" as="geometry" />
        </mxCell>
        <mxCell id="uFmt03chWxdijatXJD9G-46" value="" style="edgeStyle=orthogonalEdgeStyle;rounded=0;orthogonalLoop=1;jettySize=auto;html=1;curved=1;" edge="1" parent="WIyWlLk6GJQsqaUBKTNV-1" source="uFmt03chWxdijatXJD9G-39" target="uFmt03chWxdijatXJD9G-45">
          <mxGeometry relative="1" as="geometry" />
        </mxCell>
        <mxCell id="uFmt03chWxdijatXJD9G-39" value="Login" style="rhombus;whiteSpace=wrap;html=1;rounded=1;" vertex="1" parent="WIyWlLk6GJQsqaUBKTNV-1">
          <mxGeometry x="735" y="521.25" width="60" height="60" as="geometry" />
        </mxCell>
        <mxCell id="uFmt03chWxdijatXJD9G-48" value="" style="edgeStyle=orthogonalEdgeStyle;rounded=0;orthogonalLoop=1;jettySize=auto;html=1;curved=1;" edge="1" parent="WIyWlLk6GJQsqaUBKTNV-1" source="uFmt03chWxdijatXJD9G-45" target="uFmt03chWxdijatXJD9G-47">
          <mxGeometry relative="1" as="geometry" />
        </mxCell>
        <mxCell id="uFmt03chWxdijatXJD9G-45" value="Home" style="whiteSpace=wrap;html=1;rounded=1;" vertex="1" parent="WIyWlLk6GJQsqaUBKTNV-1">
          <mxGeometry x="450" y="584" width="50" height="20" as="geometry" />
        </mxCell>
        <mxCell id="uFmt03chWxdijatXJD9G-51" value="" style="edgeStyle=orthogonalEdgeStyle;rounded=0;orthogonalLoop=1;jettySize=auto;html=1;" edge="1" parent="WIyWlLk6GJQsqaUBKTNV-1" source="uFmt03chWxdijatXJD9G-47" target="uFmt03chWxdijatXJD9G-50">
          <mxGeometry relative="1" as="geometry" />
        </mxCell>
        <mxCell id="uFmt03chWxdijatXJD9G-47" value="Elegir mesa&amp;nbsp;" style="whiteSpace=wrap;html=1;rounded=1;" vertex="1" parent="WIyWlLk6GJQsqaUBKTNV-1">
          <mxGeometry x="435" y="644" width="80" height="30" as="geometry" />
        </mxCell>
        <mxCell id="uFmt03chWxdijatXJD9G-53" value="" style="edgeStyle=orthogonalEdgeStyle;rounded=0;orthogonalLoop=1;jettySize=auto;html=1;curved=1;" edge="1" parent="WIyWlLk6GJQsqaUBKTNV-1" source="uFmt03chWxdijatXJD9G-50" target="uFmt03chWxdijatXJD9G-52">
          <mxGeometry relative="1" as="geometry" />
        </mxCell>
        <mxCell id="uFmt03chWxdijatXJD9G-57" style="edgeStyle=orthogonalEdgeStyle;rounded=0;orthogonalLoop=1;jettySize=auto;html=1;entryX=0.5;entryY=0;entryDx=0;entryDy=0;curved=1;" edge="1" parent="WIyWlLk6GJQsqaUBKTNV-1" source="uFmt03chWxdijatXJD9G-50" target="uFmt03chWxdijatXJD9G-60">
          <mxGeometry relative="1" as="geometry">
            <mxPoint x="515" y="784" as="targetPoint" />
          </mxGeometry>
        </mxCell>
        <mxCell id="uFmt03chWxdijatXJD9G-63" value="" style="edgeStyle=orthogonalEdgeStyle;rounded=0;orthogonalLoop=1;jettySize=auto;html=1;curved=1;exitX=0;exitY=0.5;exitDx=0;exitDy=0;" edge="1" parent="WIyWlLk6GJQsqaUBKTNV-1" source="uFmt03chWxdijatXJD9G-50" target="uFmt03chWxdijatXJD9G-62">
          <mxGeometry relative="1" as="geometry" />
        </mxCell>
        <mxCell id="uFmt03chWxdijatXJD9G-50" value="Mesa" style="whiteSpace=wrap;html=1;rounded=1;" vertex="1" parent="WIyWlLk6GJQsqaUBKTNV-1">
          <mxGeometry x="455" y="704" width="40" height="25" as="geometry" />
        </mxCell>
        <mxCell id="uFmt03chWxdijatXJD9G-52" value="Abrir mesa" style="whiteSpace=wrap;html=1;rounded=1;" vertex="1" parent="WIyWlLk6GJQsqaUBKTNV-1">
          <mxGeometry x="570" y="817.5" width="60" height="27.5" as="geometry" />
        </mxCell>
        <mxCell id="uFmt03chWxdijatXJD9G-60" value="Cerrar mesa" style="rounded=1;whiteSpace=wrap;html=1;" vertex="1" parent="WIyWlLk6GJQsqaUBKTNV-1">
          <mxGeometry x="440" y="821.25" width="70" height="20" as="geometry" />
        </mxCell>
        <mxCell id="uFmt03chWxdijatXJD9G-62" value="JSON temporales para pedidos" style="whiteSpace=wrap;html=1;rounded=1;" vertex="1" parent="WIyWlLk6GJQsqaUBKTNV-1">
          <mxGeometry x="230" y="820" width="180" height="22.5" as="geometry" />
        </mxCell>
      </root>
    </mxGraphModel>
  </diagram>
</mxfile>
